<?xml version="1.0" encoding="UTF-8" standalone="no"?>
<svg
   xmlns:dc="http://purl.org/dc/elements/1.1/"
   xmlns:cc="http://creativecommons.org/ns#"
   xmlns:rdf="http://www.w3.org/1999/02/22-rdf-syntax-ns#"
   xmlns:svg="http://www.w3.org/2000/svg"
   xmlns="http://www.w3.org/2000/svg"
   xmlns:sodipodi="http://sodipodi.sourceforge.net/DTD/sodipodi-0.dtd"
   xmlns:inkscape="http://www.inkscape.org/namespaces/inkscape"
   inkscape:version="1.0 (4035a4f, 2020-05-01)"
   sodipodi:docname="noun_Snowflake_2904899.svg"
   id="svg16"
   xml:space="preserve"
   style="enable-background:new 0 0 100 100;"
   viewBox="0 0 100 125"
   y="0px"
   x="0px"
   version="1.1"><metadata
     id="metadata22"><rdf:RDF><cc:Work
         rdf:about=""><dc:format>image/svg+xml</dc:format><dc:type
           rdf:resource="http://purl.org/dc/dcmitype/StillImage" /></cc:Work></rdf:RDF></metadata><defs
     id="defs20" /><sodipodi:namedview
     inkscape:current-layer="svg16"
     inkscape:window-maximized="0"
     inkscape:window-y="203"
     inkscape:window-x="544"
     inkscape:cy="119.91042"
     inkscape:cx="36.156352"
     inkscape:zoom="4.912"
     showgrid="false"
     id="namedview18"
     inkscape:window-height="480"
     inkscape:window-width="745"
     inkscape:pageshadow="2"
     inkscape:pageopacity="0"
     guidetolerance="10"
     gridtolerance="10"
     objecttolerance="10"
     borderopacity="1"
     bordercolor="#666666"
     pagecolor="#ffffff" /><path
     id="path10"
     d="M92.424118,66.2958984l-6.0195312-0.9648438l0.3779297-5.3505859  c0.0097656-0.1279297-0.0800781-0.2431641-0.2070312-0.2636719c-0.1328125-0.0244141-0.25,0.0566406-0.2832031,0.1806641  l-1.3984375,5.1923828l-4.4541016-0.7138672l2.8505859-3.7148438c0.078125-0.1025391,0.0664062-0.2470703-0.0273438-0.3349609  c-0.0927734-0.0878906-0.2392578-0.0908203-0.3359375-0.0048828l-4.2675781,3.7695312l-3.2089844-0.5136719  c-0.0019531,0-0.0039062-0.0009766-0.0068359-0.0009766l-8.84375-5.5742188l3.2373047,0.2548828l4.2070312,4.0957031  c0.0947266,0.0917969,0.2392578,0.0947266,0.3388672,0.0107422c0.0976562-0.0849609,0.1142578-0.2314453,0.0380859-0.3359375  l-2.6269531-3.6162109l7.0068359,0.5498047c0.1474609,0.0253906,0.2519531-0.0869141,0.2675781-0.2197266  s-0.0761719-0.2548828-0.2089844-0.2763672l-7.4257812-1.1894531l1.2180176-1.840271l0.480835,0.1836548  c0.100647,0.038269,0.2105713-0.0109253,0.2526245-0.1065674c0.0419312-0.0974121-0.0005493-0.2112427-0.0964355-0.2567139  l-0.3937988-0.1878662l1.1842651-1.7893066c0.0722656-0.1083984,0.0488281-0.2529297-0.0527344-0.3339844  c-0.1015625-0.0800781-0.2470703-0.0703125-0.3369141,0.0244141l-1.6098633,1.7098999l-3.8120728-1.8187866l3.2318726-1.43927  c0.092041-0.0415649,0.1400146-0.1486816,0.1061401-0.2460327c-0.0335083-0.0966797-0.1358643-0.1517944-0.2348022-0.1268311  l-4.5050049,1.1434326l-2.3198242-1.1071167l8.2684937-0.3200073c0.001709-0.0001221,0.0031738,0.0008545,0.0042114,0.0011597  l2.4033813,0.9178467l1.4324951,4.2728882c0.0324707,0.0963745,0.1328125,0.15271,0.2322388,0.130127  c0.097168-0.0249023,0.1650391-0.1176147,0.1520386-0.2189941l-0.4841309-3.675354l3.335083,1.2733765l-1.0957642,4.1126099  c-0.0258789,0.098877,0.0266113,0.2006836,0.1222534,0.2364502c0.0960693,0.036499,0.2045898-0.0073853,0.246521-0.0985718  l1.8587036-3.817688l4.5075684,1.7210083c0.100647,0.038269,0.2106323-0.0109253,0.2526245-0.1065674  c0.0419922-0.0974121-0.0005493-0.2112427-0.0964355-0.2567139l-3.9942627-1.9049072l3.052002-1.4416504  c0.0899048-0.0421143,0.1357422-0.1497803,0.1019287-0.2454224c-0.0348511-0.0958862-0.1367798-0.1503906-0.2346802-0.1251221  l-4.3835449,1.1126099l-4.2164307-2.0113525l11.4089966-0.442749c0.1068726-0.0019531,0.1895142-0.0906982,0.1904297-0.1973877  c-0.0004883-0.105957-0.0839844-0.1934204-0.190918-0.1977539l-11.4084473-0.4420776l4.2163696-2.0112305l4.3826904,1.1120605  c0.1005859,0.0258179,0.2022705-0.0283813,0.2349243-0.1248779c0.03479-0.0959473-0.008667-0.2020874-0.1016846-0.2456665  l-3.050415-1.4403687l3.9927368-1.9053955c0.1110229-0.0488892,0.1383057-0.1592407,0.0964966-0.2564697  c-0.0418701-0.097229-0.1530762-0.1445923-0.2519531-0.1071167l-4.5080566,1.7208862l-1.8585205-3.8172607  c-0.0438843-0.0915527-0.151123-0.1349487-0.2462158-0.0988159c-0.100708,0.0358276-0.1489868,0.1378174-0.1226196,0.2359619  l1.0963135,4.1126709l-3.3356934,1.2733765l0.4838257-3.6745605c0.0130005-0.1011963-0.0522461-0.1956177-0.1513062-0.21875  c-0.0983887-0.0235596-0.1999512,0.0324097-0.2321777,0.1295776l-1.4335327,4.2728271l-2.4029541,0.9178467  c-0.0012817,0.0007935-0.0030518,0.0009155-0.0050659,0.0020752l-8.2681274-0.3209839l2.3199463-1.1065063l4.5046997,1.1425171  c0.1012573,0.0254517,0.2014771-0.0297241,0.2365112-0.126709c0.0333252-0.0969238-0.0132446-0.2038574-0.1068115-0.2453613  l-3.2318726-1.4391479l3.8117065-1.8192139l1.6099854,1.7095947c0.0888672,0.0952148,0.234375,0.1044922,0.3369141,0.0244141  c0.1015625-0.0805664,0.125-0.2255859,0.0527344-0.3339844l-1.1843262-1.7891846l0.3935547-0.1878052  c0.111145-0.0409546,0.1383057-0.1592407,0.0964966-0.2564697c-0.0418701-0.097229-0.1531372-0.1445923-0.2526245-0.1067505  l-0.4807129,0.1835327l-1.2178955-1.8399048l7.4257812-1.1889648c0.1328125-0.0214844,0.2246094-0.1435547,0.2089844-0.2768555  c-0.015625-0.1323242-0.1201172-0.2460938-0.2675781-0.2192383l-7.0068359,0.550293l2.6269531-3.6166992  c0.0761719-0.1049805,0.0595703-0.2509766-0.0380859-0.3359375c-0.0996094-0.0854492-0.2451172-0.0800781-0.3388672,0.0097656  l-4.2070312,4.0961914l-3.2373047,0.2543945l8.8447266-5.5742188c0.0019531,0,0.0039062-0.0004883,0.0058594-0.0004883  l3.2089844-0.5141602l4.2666016,3.7700195c0.0976562,0.0849609,0.2431641,0.0844727,0.3369141-0.0048828  c0.09375-0.0878906,0.1054688-0.2329102,0.0273438-0.3349609l-2.8505859-3.7148438l4.4541016-0.7133789l1.3984375,5.1914062  c0.0332031,0.1245117,0.1503906,0.2060547,0.2832031,0.1816406c0.1269531-0.0214844,0.2167969-0.1357422,0.2070312-0.2641602  l-0.3779297-5.3515625l6.0185547-0.9633789c0.1328125-0.0214844,0.2246094-0.1435547,0.2089844-0.2768555  c-0.015625-0.1328125-0.1152344-0.2260742-0.2675781-0.2192383l-5.5722656,0.4375l2.4277344-3.503418  c0.0742188-0.105957,0.0546875-0.25-0.0439453-0.3334961c-0.0966797-0.0830078-0.2421875-0.0766602-0.3359375,0.0117188  l-4.0927734,3.9858398l-5.8837891,0.4624023l12.203125-7.690918c0.1142578-0.0712891,0.1503906-0.2202148,0.0839844-0.3364258  c-0.0683594-0.1166992-0.2148438-0.1586914-0.3330078-0.0961914L78.055954,32.8686523l3.3417969-4.8632812l5.4990234-1.5517578  c0.1230469-0.0351562,0.2001953-0.1586914,0.1777344-0.2851562c-0.0224609-0.1259766-0.1337891-0.2104492-0.2666016-0.2045898  l-4.25,0.3510742l3.1669922-4.6079102c0.0761719-0.1103516,0.0507812-0.2612305-0.0566406-0.3417969  c-0.1064453-0.0795898-0.2578125-0.0629883-0.34375,0.0424805l-3.8447266,4.730957l-4.4453125-3.0029297  c-0.1054688-0.0712891-0.2509766-0.0527344-0.3320312,0.0478516c-0.0820312,0.0991211-0.0751953,0.2446289,0.015625,0.3359375  l3.796875,3.8071289l-2.8447266,3.5004883L75.8782196,26.5c-0.0498047-0.1191406-0.1816406-0.1801758-0.3046875-0.1435547  c-0.1230469,0.0375977-0.1972656,0.1625977-0.171875,0.2890625l1.1318359,5.5805664l-2.0498047,2.5214844  c-0.0009766,0.0014648-0.0019531,0.0029297-0.0029297,0.0048828l-9.25,4.8730469l1.8388672-2.6767578l5.6513672-1.5952148  c0.1240234-0.0351562,0.2011719-0.1606445,0.1767578-0.2880859s-0.1435547-0.2138672-0.2714844-0.2011719l-4.4453125,0.4663086  l3.9804688-5.7924805c0.0761719-0.1108398,0.0507812-0.2612305-0.0566406-0.3417969  c-0.1064453-0.0795898-0.2578125-0.0629883-0.34375,0.0424805l-4.7431641,5.8374023l-0.9847412-1.9750977l0.3994751-0.324585  c0.0825806-0.0672607,0.097168-0.1872559,0.0336914-0.2724609c-0.0630493-0.0845337-0.1796875-0.1211548-0.2701416-0.0443726  l-0.3596191,0.2470703l-0.9573364-1.920105c-0.0585938-0.1176758-0.1962891-0.1689453-0.3154297-0.1210938  c-0.1210938,0.0478516-0.1845703,0.1801758-0.1474609,0.3041992l0.675415,2.2487183l-3.4807739,2.3914185l0.3693237-3.5187988  c0.0106812-0.1021118-0.0584717-0.1956177-0.1590576-0.21521c-0.1020508-0.019104-0.199707,0.0421753-0.2283936,0.1408081  l-1.2626953,4.4727783l-2.1184082,1.4555664l3.8567505-7.3212891c0.0013428-0.0007935,0.0025024-0.0018921,0.0038452-0.0026855  l1.9961548-1.6223755l4.416687,0.8956909c0.1005249,0.0195923,0.2000732-0.0383301,0.2290039-0.1367188  c0.02948-0.0973511-0.0198975-0.201355-0.1138306-0.2404175l-3.4241943-1.4182739l2.770874-2.251709l3.0131226,3.005127  c0.0720215,0.0722046,0.1846313,0.0817261,0.2659912,0.0123901c0.0784912-0.0649414,0.0949097-0.178833,0.0373535-0.2630005  l-2.3769531-3.5187378l3.7442627-3.0422974c0.0825195-0.0672607,0.097168-0.1872559,0.0336914-0.2724609  c-0.0632935-0.0848389-0.168457-0.109375-0.2702026-0.0443726l-3.6464844,2.505127l0.2776489-3.3622437  c0.0089722-0.1020508-0.0614624-0.1930542-0.1621094-0.2112427c-0.0991211-0.0186157-0.1963501,0.0432739-0.2255859,0.1409912  l-1.2280884,4.3519287l-3.8501587,2.6455078l5.321167-10.1013794c0.0501099-0.0940552,0.0159302-0.2104492-0.0755615-0.263855  c-0.0930786-0.0529175-0.210083-0.0237427-0.2663574,0.0658569l-6.0870361,9.6590576l0.3660278-4.656189l3.1552734-3.2399292  c0.0704346-0.0728149,0.0744019-0.1880493,0.0089722-0.2658081c-0.0652466-0.0774536-0.1749878-0.0913086-0.2637329-0.034729  l-2.774292,1.9226074l0.34729-4.4119263c0.0085449-0.105835-0.0686035-0.1991577-0.1741333-0.2119141  c-0.1044312-0.0123901-0.2015991,0.0588989-0.218811,0.1651611l-0.7631226,4.7645264l-4.2355347-0.2991333  c-0.1005249-0.0071411-0.1929321,0.0631714-0.2086792,0.1641846c-0.0170288,0.1004028,0.0452881,0.1974487,0.1436768,0.2240601  l4.109314,1.1070557l-0.5646362,3.5253296l-2.9408569-2.256958c-0.0812988-0.0619507-0.1958008-0.0516357-0.265625,0.0221558  c-0.069519,0.0744629-0.0709229,0.1895142-0.003418,0.2661743l2.984375,3.3773804l-0.4072266,2.5396118  c-0.000061,0.0014038-0.0001831,0.0028076-0.000061,0.0045166l-4.4120483,7.0010986l0.2011108-2.562561l3.2425537-3.3300781  c0.071106-0.0731812,0.0743408-0.1896973,0.0071411-0.267395c-0.0671387-0.0776978-0.1830444-0.0897827-0.265686-0.0304565  l-2.8626099,2.0788574l0.3310547-4.2096558L59.2727509,28c0.1259766-0.0297852,0.2089844-0.1513672,0.1894531-0.2797852  c-0.0175781-0.1279297-0.1044922-0.2177734-0.2626953-0.2128906l-2.140686,0.1313477l0.0342407-0.4352417  c0.0083618-0.1061401-0.0686035-0.1991577-0.1740723-0.2119141c-0.1044922-0.0123901-0.2016602,0.0588989-0.218811,0.1651611  l-0.0814819,0.5089722l-2.2023926,0.1351318l2.6835938-7.0263672c0.0478516-0.1254883-0.0117188-0.2661133-0.1347656-0.3193359  c-0.1230469-0.0527344-0.265625,0.0014648-0.3242188,0.1220703l-3.0273438,6.3432617l-1.8183594-4.0830078  c-0.0527344-0.1186523-0.1855469-0.1762695-0.3105469-0.1347656c-0.1220703,0.0424805-0.1923828,0.171875-0.1601562,0.2978516  l1.4443359,5.6914062l-1.3984375,2.9311523l-0.4052734-10.4472656c0.0004883-0.0019531,0.0014648-0.003418,0.0019531-0.0053711  l1.1591797-3.0356445l5.3984375-1.8110352c0.1220703-0.0405273,0.1933594-0.1674805,0.1640625-0.2929688  c-0.0283203-0.1254883-0.1513672-0.2089844-0.2753906-0.1918945l-4.6445312,0.6118164l1.6103516-4.2138672l5.1953125,1.3852539  c0.1240234,0.0292969,0.2539062-0.0341797,0.2988281-0.1542969c0.0449219-0.1206055-0.0087891-0.2558594-0.125-0.3120117  l-4.8232422-2.3486328l2.1748047-5.6948242c0.0478516-0.1254883-0.0117188-0.2661133-0.1347656-0.3193359  c-0.1230469-0.0522461-0.265625,0.0004883-0.3242188,0.1220703l-2.4082031,5.0458984l-1.8193359-3.8554688  c-0.0566406-0.1162109-0.1904297-0.1704102-0.3115234-0.128418c-0.1210938,0.043457-0.1894531,0.171875-0.1572266,0.296875  L53.3498993,11.8125l-2.5415039,5.3251953L50.2502899,2.7236328c-0.0053711-0.1342773-0.1157227-0.2402344-0.25-0.2402344  s-0.2446289,0.105957-0.25,0.2402344l-0.5581055,14.4140625L46.6511688,11.8125l1.4047852-5.5385742  c0.0317383-0.125-0.0366211-0.253418-0.1577148-0.296875c-0.1206055-0.0424805-0.2553711,0.012207-0.3105469,0.128418  L45.767868,9.9609375l-2.4077148-5.0454102c-0.0576172-0.121582-0.2006836-0.1738281-0.3242188-0.1225586  c-0.1230469,0.0532227-0.1826172,0.1938477-0.1347656,0.3193359l2.1748047,5.6948242l-4.8232422,2.3486328  c-0.1157227,0.0561523-0.1699219,0.1914062-0.125,0.3120117c0.0449219,0.1201172,0.1733398,0.1860352,0.2988281,0.1542969  l5.1948242-1.3847656l1.609375,4.2133789l-4.6430664-0.6118164c-0.1323242-0.0166016-0.2475586,0.0664062-0.2763672,0.1918945  s0.0419922,0.2524414,0.1640625,0.2929688l5.3984375,1.8110352l1.159668,3.0356445  c0.0004883,0.0019531,0.0014648,0.003418,0.0019531,0.0053711L48.630661,31.6230469l-1.3984375-2.9311523l1.4438477-5.6914062  c0.0322266-0.1259766-0.0375977-0.2553711-0.1601562-0.2978516c-0.1230469-0.0429688-0.2573242,0.0161133-0.3105469,0.1347656  l-1.8188477,4.0830078l-3.0263672-6.3427734c-0.0576172-0.1220703-0.2006836-0.1748047-0.3242188-0.1225586  c-0.1230469,0.0532227-0.1826172,0.1938477-0.1347656,0.3193359l2.6831055,7.0263672l-2.2022095-0.1350708l-0.0814819-0.5088501  c-0.0169067-0.1049194-0.1134033-0.1777344-0.218811-0.1655273c-0.1051636,0.0125122-0.1814575,0.1061401-0.1738892,0.2119751  l0.0341797,0.4354248l-2.1419678-0.1314087C40.6770477,27.5,40.5569305,27.5922852,40.5373993,27.7202148  c-0.0185547,0.128418,0.0639648,0.25,0.1899414,0.2797852l2.2854004,0.5396729l0.3303833,4.2098389l-2.8623657-2.0791626  c-0.0830688-0.0604248-0.1968994-0.0473633-0.2661743,0.0305176c-0.0668945,0.0774536-0.0638428,0.1939697,0.0081177,0.2675781  l3.2424316,3.3296509l0.201416,2.5626831l-4.4123535-7.0009155c-0.0004272-0.0015259-0.0003662-0.0029297-0.0007935-0.0044556  l-0.4067993-2.5396118l2.9837646-3.3778687c0.067627-0.0760498,0.0662231-0.1912842-0.003479-0.2657471  c-0.0690918-0.0747681-0.1864624-0.083313-0.2647095-0.022522l-2.9415894,2.2574463l-0.5637817-3.5257568l4.109436-1.1065063  c0.0966187-0.0290527,0.1605225-0.1239624,0.1437988-0.2240601c-0.0169678-0.1004639-0.1072998-0.171875-0.2091675-0.1644287  l-4.2357178,0.2989502l-0.7630005-4.7643433c-0.0168457-0.1049194-0.1133423-0.1777954-0.21875-0.1655273  c-0.1050415,0.0128784-0.1818848,0.1054077-0.1739502,0.2119751l0.3461914,4.4118652l-2.7728882-1.9227905  c-0.0848389-0.057251-0.197998-0.0414429-0.2643433,0.0352783c-0.0658569,0.0776978-0.0618896,0.192749,0.0097046,0.265686  l3.1552124,3.2404175l0.3652954,4.6560669l-6.0869732-9.6595459c-0.0568237-0.0899048-0.1744385-0.1188965-0.2664795-0.0657349  s-0.1257324,0.1694336-0.0762939,0.2636108l5.3218975,10.1012573l-3.8492432-2.6445923l-1.229002-4.352478  c-0.02771-0.0982666-0.1253662-0.1592407-0.2255859-0.1411133c-0.0994873,0.0186157-0.1702271,0.109436-0.1620483,0.2109375  l0.2783813,3.3630371l-3.6471558-2.5056152c-0.0876465-0.0605469-0.2063599-0.0397339-0.270752,0.0443115  c-0.0632935,0.085144-0.0484619,0.2051392,0.0339966,0.2722168l3.7445068,3.0429077l-2.376709,3.5187378  c-0.0570679,0.0842896-0.0407104,0.1984863,0.0378418,0.2633667c0.0783081,0.0645752,0.1924438,0.0588989,0.2658691-0.0125122  l3.0128765-3.0050659l2.7706299,2.2512207l-3.4248028,1.4181519c-0.09729,0.0409546-0.1434326,0.1434937-0.1134644,0.2409058  c0.0299072,0.0974121,0.1286621,0.1564331,0.2283936,0.1358643l4.4171734-0.8950195l1.9962769,1.6218872  c0.0011597,0.0011597,0.0023804,0.00177,0.003479,0.0028687l3.8571167,7.3215332l-2.1185913-1.4558105l-1.2626953-4.4726562  c-0.027771-0.0991211-0.1268311-0.1602173-0.2276611-0.1408081c-0.1013794,0.0192261-0.1700439,0.112854-0.1595459,0.215271  l0.3690796,3.5186157l-3.4802856-2.3912964l0.675415-2.2486572c0.0375977-0.1240234-0.0263672-0.2563477-0.1469727-0.3041992  c-0.1206055-0.0463867-0.2578125,0.0043945-0.315918,0.1210938l-0.9572144,1.920105l-0.3596802-0.2471313  c-0.0878296-0.0608521-0.2067261-0.0404053-0.270752,0.0443115c-0.0632935,0.085144-0.0484619,0.2051392,0.0339966,0.2722168  l0.3998413,0.3249512l-0.984375,1.9746094l-4.7436504-5.8369141c-0.0849609-0.1044922-0.2358398-0.1230469-0.34375-0.0424805  c-0.1074219,0.0805664-0.1323242,0.230957-0.0561523,0.3417969l3.9794922,5.7924805l-4.4448242-0.4663086  c-0.1367188-0.0170898-0.2470703,0.0742188-0.2714844,0.2011719c-0.0244141,0.1274414,0.0527344,0.2524414,0.1777344,0.2880859  l5.6503887,1.5952148l1.8393555,2.6767578l-9.2504864-4.8735352c-0.0009766-0.0014648-0.0019531-0.0029297-0.003418-0.0043945  l-2.0493164-2.5214844l1.1313477-5.5805664c0.0253906-0.1264648-0.0488281-0.2514648-0.1723633-0.2890625  C24.3064442,26.3193359,24.1716785,26.3803711,24.1223621,26.5l-1.7915039,4.3271484l-2.8452148-3.5004883l3.7973633-3.8071289  c0.0908203-0.0913086,0.0976562-0.2368164,0.015625-0.3359375c-0.0825195-0.0996094-0.2255859-0.1206055-0.3330078-0.0478516  l-4.4448242,3.0029297l-3.8447275-4.730957c-0.0849609-0.1040039-0.2363281-0.1225586-0.34375-0.0424805  c-0.1074219,0.0805664-0.1323242,0.230957-0.0561523,0.3417969l3.1655283,4.6079102l-4.2485361-0.3510742  c-0.1293945-0.0146484-0.2436523,0.078125-0.2666016,0.2045898s0.0541992,0.25,0.1782227,0.2851562l5.4985361,1.5517578  l3.3413086,4.8632812L9.1829081,26.1455078c-0.1196289-0.0629883-0.2666016-0.0214844-0.3330078,0.0961914  c-0.0673828,0.1162109-0.0307617,0.2651367,0.0830078,0.3364258l12.2036142,7.690918l-5.8823252-0.4624023l-4.09375-3.9858398  c-0.0922852-0.0898438-0.237793-0.0952148-0.3359375-0.0117188s-0.1171875,0.2275391-0.0439453,0.3334961l2.4287109,3.503418  l-5.57373-0.4375c-0.1391602-0.0043945-0.2519531,0.0864258-0.2675781,0.2192383  c-0.0161133,0.1333008,0.0761719,0.2553711,0.2084961,0.2768555l6.0195308,0.9633789l-0.3779297,5.3515625  c-0.0087891,0.128418,0.0810547,0.2426758,0.2080078,0.2641602c0.1279297,0.0244141,0.2490234-0.0571289,0.2827148-0.1816406  l1.3979492-5.1914062l4.4545908,0.7133789l-2.8510742,3.7148438c-0.0786133,0.1025391-0.0664062,0.2470703,0.027832,0.3349609  c0.0947266,0.0878906,0.2397461,0.0898438,0.3359375,0.0048828l4.2666016-3.7700195l3.2084961,0.5141602  c0.0019531,0,0.0039062,0.0004883,0.0063477,0.0004883l8.8452129,5.5742188l-3.2377911-0.2543945l-4.2070312-4.0961914  c-0.0922852-0.0893555-0.2392578-0.0952148-0.3378906-0.0097656c-0.0981445,0.0849609-0.1147461,0.230957-0.0385742,0.3359375  l2.6264648,3.6166992l-7.0068359-0.550293c-0.144043-0.0166016-0.2519531,0.0864258-0.2675781,0.2192383  c-0.0161133,0.1333008,0.0761719,0.2553711,0.2084961,0.2768555l7.4272461,1.1889648l-1.2181396,1.8399048l-0.4815674-0.1838989  c-0.0996094-0.0380249-0.2103882,0.0089722-0.2524414,0.1069336c-0.041748,0.0977173,0.0006714,0.2106934,0.0967407,0.2565308  l0.3939209,0.1879883l-1.1845093,1.7891235c-0.0717773,0.1083984-0.0483398,0.253418,0.0532227,0.3339844  c0.1015625,0.081543,0.2480469,0.0703125,0.3374023-0.0244141l1.6097412-1.7093506l3.8104858,1.8182983l-3.2313232,1.4394531  c-0.1005249,0.0423584-0.1400146,0.1486206-0.1065063,0.2453003c0.0336914,0.0970459,0.1360474,0.1522217,0.2358398,0.1271362  l4.5045147-1.1427002l2.3201294,1.1069336l-8.2696514,0.3202515c-0.0012207-0.0006104-0.0025024-0.0012207-0.0040894-0.0016479  l-2.4026489-0.9173584l-1.4330444-4.2730713c-0.0325928-0.0967407-0.1329346-0.1530762-0.2325439-0.1299438  c-0.0966797,0.0219116-0.164917,0.1170654-0.1513672,0.2186279l0.4844971,3.6751099l-3.3356323-1.2734375l1.0962524-4.1125488  c0.026123-0.0985107-0.0267944-0.2009888-0.1222534-0.2364502c-0.0959473-0.0355835-0.2023315,0.0065918-0.2471924,0.098999  l-1.8583374,3.8175049l-4.5077524-1.7213745c-0.0994263-0.0376587-0.2105103,0.0095215-0.2524414,0.1069336  c-0.041748,0.0977173,0.0006714,0.2106934,0.0967407,0.2565308l3.9934702,1.9057617l-3.0511484,1.4407349  c-0.0944824,0.0411987-0.1361084,0.1500244-0.1018066,0.2457886c0.0343628,0.0957642,0.1361084,0.1499023,0.2350464,0.124939  l4.3831797-1.1124268l4.2150269,2.0112915L12.5804911,49.802063c-0.1068726,0.0041504-0.1912231,0.0907593-0.1901855,0.1977539  c-0.0001831,0.1063232,0.0838623,0.1939087,0.1900635,0.1977539l11.4089365,0.4421997l-4.2151489,2.0110474l-4.3835459-1.1120605  c-0.0988159-0.0250854-0.2006836,0.0288086-0.2349243,0.1248779c-0.0342407,0.0961304,0.0097046,0.2023926,0.1018677,0.2460327  l3.0512705,1.4403076l-3.9937754,1.9059448c-0.0971069,0.052063-0.1384888,0.1589355-0.0966187,0.2561646  c0.041687,0.0977783,0.1532593,0.1448975,0.2525024,0.1072998l4.5074472-1.7219238l1.8588867,3.8178711  c0.0447388,0.0915527,0.1515503,0.1342773,0.2470703,0.0987549c0.0973511-0.0338745,0.1481323-0.1376953,0.1219482-0.2363892  l-1.0963135-4.1117554l3.3358154-1.2739868l-0.4841309,3.6747437c-0.0133057,0.1014404,0.0522461,0.1956787,0.1516113,0.2186279  c0.0997314,0.0227661,0.1998901-0.0333252,0.2322388-0.1296387l1.4326172-4.2727661l2.402832-0.9172974  c0.0013428-0.0007935,0.0028687-0.0012207,0.0045166-0.0021973l8.2691631,0.3204346l-2.3200684,1.1069946l-4.5048809-1.1428833  c-0.0986328-0.0247192-0.2017212,0.0294189-0.2354736,0.1270142c-0.0336914,0.0971069,0.0126953,0.2037354,0.1065063,0.2455444  l3.2316895,1.4396973l-3.81073,1.8184204L26.3118153,52.96875c-0.090332-0.0947266-0.2363281-0.1054688-0.3374023-0.0244141  c-0.1015625,0.0810547-0.125,0.2255859-0.0532227,0.3339844l1.1846924,1.7896118l-0.3942261,0.1881104  c-0.1053467,0.0455933-0.1385498,0.1589355-0.0966797,0.2561646c0.041687,0.0977783,0.1532593,0.1448975,0.2525024,0.1072998  l0.4817505-0.184021l1.2179565,1.8399048l-7.4272461,1.1894531c-0.1323242,0.0214844-0.2246094,0.1435547-0.2084961,0.2763672  c0.015625,0.1337891,0.1230469,0.2412109,0.2675781,0.2197266l7.0068359-0.5498047l-2.6264648,3.6162109  c-0.0761719,0.1044922-0.0595703,0.2509766,0.0385742,0.3359375c0.0986328,0.0839844,0.2456055,0.0810547,0.3378906-0.0107422  l4.2070312-4.0957031l3.2377911-0.2548828l-8.8442364,5.5742188c-0.0024414,0-0.0048828,0.0009766-0.0073242,0.0009766  l-3.2084961,0.5136719l-4.2666016-3.7695312c-0.0961914-0.0859375-0.2412109-0.0830078-0.3359375,0.0048828  c-0.0942383,0.0878906-0.1064453,0.2324219-0.027832,0.3349609l2.8510742,3.7148438l-4.4545908,0.7138672l-1.3979492-5.1923828  c-0.0336914-0.1240234-0.1547852-0.2050781-0.2827148-0.1806641c-0.1269531,0.0205078-0.2167969,0.1357422-0.2080078,0.2636719  l0.3779297,5.3505859l-6.0195308,0.9648438c-0.1323242,0.0214844-0.2246094,0.1435547-0.2084961,0.2763672  c0.0161133,0.1337891,0.1376953,0.2392578,0.2675781,0.2197266l5.57373-0.4384766l-2.4287109,3.5039062  c-0.0732422,0.1064453-0.0541992,0.25,0.0439453,0.3330078c0.0991211,0.0839844,0.2446289,0.0800781,0.3359375-0.0117188  l4.09375-3.9853516l5.8823252-0.4619141L8.9329081,73.4208984c-0.1137695,0.0722656-0.1503906,0.2207031-0.0830078,0.3369141  c0.0664062,0.1162109,0.2133789,0.1601562,0.3330078,0.0957031l12.7617197-6.7226562l-3.3413086,4.8642578l-5.4985361,1.5517578  c-0.1240234,0.0341797-0.2011719,0.1582031-0.1782227,0.2851562c0.0229492,0.1259766,0.1459961,0.2226562,0.2666016,0.2041016  l4.2485361-0.3505859l-3.1655283,4.6074219c-0.0761719,0.1103516-0.0512695,0.2617188,0.0561523,0.3417969  c0.1074219,0.0791016,0.2587891,0.0634766,0.34375-0.0429688l3.8447275-4.7304688l4.4448242,3.0029297  c0.1079102,0.0732422,0.2504883,0.0517578,0.3330078-0.0478516c0.0820312-0.0996094,0.0751953-0.2441406-0.015625-0.3359375  l-3.7973633-3.8066406l2.8452148-3.5009766L24.1223621,73.5c0.0493164,0.1191406,0.1787109,0.1767578,0.3037109,0.1435547  c0.1235352-0.0380859,0.1977539-0.1630859,0.1723633-0.2890625l-1.1313477-5.5800781l2.0493164-2.5224609  c0.0014648-0.0009766,0.0024414-0.0019531,0.003418-0.0039062L34.7703094,60.375l-1.8393555,2.6757812l-5.6503887,1.5957031  c-0.125,0.0351562-0.2021484,0.1601562-0.1777344,0.2871094s0.1367188,0.2197266,0.2714844,0.2021484l4.4448242-0.4667969  l-3.9794922,5.7929688c-0.0761719,0.1103516-0.0512695,0.2617188,0.0561523,0.3417969  c0.1079102,0.0791016,0.2587891,0.0625,0.34375-0.0429688l4.7436504-5.8369141l0.984314,1.9749146l-0.4002075,0.3251953  c-0.0822144,0.0670776-0.097168,0.1873169-0.0335693,0.2719727c0.0636597,0.0855103,0.1798096,0.1166382,0.2703857,0.0446777  l0.3600464-0.2473145l0.9572144,1.9205933c0.0581055,0.1152344,0.1972656,0.1689453,0.3154297,0.1210938  c0.1210938-0.0478516,0.1850586-0.1796875,0.1474609-0.3046875l-0.675354-2.2485962l3.4805908-2.3909302l-0.3692017,3.5182495  c-0.0108643,0.1017456,0.0584717,0.1956177,0.1593628,0.2150269c0.1008911,0.0184937,0.2004395-0.041687,0.227356-0.1411133  l1.2629395-4.4724731l2.1185303-1.4560547l-3.8564453,7.321106c-0.0016479,0.0009766-0.0029907,0.0026245-0.0046387,0.0036011  l-1.9960327,1.6218872l-4.416441-0.8953857c-0.0999756-0.020813-0.1981812,0.0385742-0.2283325,0.1362915  c-0.0298462,0.0975342,0.0189819,0.2014771,0.1134644,0.2406006l3.4244976,1.4180908l-2.7709961,2.2522583l-3.0131207-3.0059204  c-0.0722046-0.0717163-0.1872559-0.0793457-0.2653198-0.0119629c-0.0789185,0.06427-0.0948486,0.178833-0.038208,0.2630615  l2.3765869,3.5180664l-3.7443848,3.0436401c-0.0822144,0.0671387-0.097168,0.1873169-0.0335693,0.2719727  c0.0640259,0.0853271,0.1890869,0.1094971,0.2703857,0.0447388l3.6470947-2.5064087l-0.2780762,3.3629761  c-0.0081177,0.1019897,0.0617676,0.1928101,0.1618652,0.2108765c0.1011963,0.0183716,0.1994019-0.0419312,0.225647-0.1409912  l1.228941-4.3519287l3.8493652-2.6445923L31.1187,82.3068848c-0.0493774,0.0945435-0.0157471,0.2108154,0.076416,0.2637939  c0.0915527,0.0534058,0.2096558,0.0253296,0.2661743-0.0661621l6.0872173-9.6587524l-0.3652954,4.6566772l-3.1549683,3.2397461  c-0.0714722,0.0725098-0.0752563,0.1880493-0.0093384,0.2659912c0.0656128,0.0772705,0.1882324,0.0948486,0.2635498,0.0344238  l2.7734985-1.9216919l-0.3464355,4.4110107c-0.0085449,0.1057739,0.0684204,0.199707,0.1737671,0.2120361  c0.1049194,0.0117188,0.2025146-0.0588989,0.2185669-0.1654663l0.7633667-4.7641602l4.2352295,0.2993164  c0.1029663,0.0075073,0.1921997-0.0636597,0.2092896-0.1645508c0.0168457-0.100769-0.0450439-0.1971436-0.1436157-0.2241211  l-4.1094971-1.1065063l0.5647583-3.5258179l2.9405518,2.2571411c0.0809326,0.0621338,0.1924438,0.050415,0.2649536-0.0217896  c0.0696411-0.0750122,0.0710449-0.1900635,0.0037842-0.2663574l-2.9838867-3.3772583l0.4064941-2.5401001  c0.0006104-0.0012207,0.0009155-0.0023193,0.0007935-0.0040283l4.4124146-7.0012817l-0.2019043,2.5621338l-3.2416382,3.3299561  c-0.0717773,0.0736084-0.0751953,0.1898193-0.0082397,0.2671509c0.0670166,0.0773926,0.1807251,0.0964966,0.2661133,0.0311279  l2.8620605-2.0790405l-0.3303833,4.210083L40.7273407,72c-0.1259766,0.0292969-0.2084961,0.1513672-0.1899414,0.2792969  c0.0195312,0.1289062,0.1420898,0.2158203,0.2626953,0.2138672l2.1416626-0.1315918l-0.0341187,0.4345703  c-0.0084839,0.1057739,0.0684814,0.199646,0.1737671,0.2120361c0.1052856,0.0115356,0.2021484-0.0595703,0.2186279-0.1654663  l0.0814209-0.5081787l2.2028198-0.1353149l-2.6831055,7.0273438c-0.0478516,0.125,0.0117188,0.265625,0.1347656,0.3183594  c0.1235352,0.0527344,0.2666016,0,0.3242188-0.1220703l3.0263672-6.34375l1.8188477,4.0830078  c0.0532227,0.1191406,0.1875,0.1748047,0.3105469,0.1347656c0.1225586-0.0429688,0.1923828-0.171875,0.1601562-0.2978516  l-1.4438477-5.6914062l1.3984375-2.9306641l0.4047852,10.4472656c-0.0004883,0.0019531-0.0014648,0.0039062-0.0019531,0.0058594  l-1.159668,3.0361328l-5.3984375,1.8095703c-0.1220703,0.0410156-0.1928711,0.1679688-0.1640625,0.2939453  c0.0288086,0.125,0.1435547,0.2001953,0.2763672,0.1914062l4.6430664-0.6123047l-1.609375,4.2138672l-5.1948242-1.3837891  c-0.1254883-0.0332031-0.2539062,0.0332031-0.2988281,0.1542969c-0.0449219,0.1201172,0.0092773,0.2548828,0.125,0.3115234  l4.8227539,2.3486328l-2.1743164,5.6943359c-0.0478516,0.125,0.0117188,0.265625,0.1347656,0.3183594  c0.1235352,0.0527344,0.2666016,0,0.3242188-0.1220703l2.4077148-5.0449219l1.8198242,3.8544922  c0.0551758,0.1171875,0.1899414,0.1708984,0.3105469,0.1289062c0.1210938-0.0439453,0.1894531-0.171875,0.1577148-0.296875  l-1.4047852-5.5371094l2.5410156-5.3261719l0.5581055,14.4140625c0.0053711,0.1337891,0.1157227,0.2402344,0.25,0.2402344  s0.2446289-0.1064453,0.25-0.2402344l0.5581055-14.4140625l2.5415039,5.3261719l-1.4052734,5.5371094  c-0.0322266,0.125,0.0361328,0.2529297,0.1572266,0.296875c0.1210938,0.0429688,0.2558594-0.0117188,0.3105469-0.1289062  l1.8203125-3.8544922l2.4082031,5.0449219c0.0585938,0.1210938,0.2011719,0.1738281,0.3242188,0.1220703  c0.1230469-0.0527344,0.1826172-0.1933594,0.1347656-0.3183594l-2.1748047-5.6943359l4.8232422-2.3486328  c0.1162109-0.0566406,0.1699219-0.1914062,0.125-0.3115234c-0.0458984-0.1220703-0.1757812-0.1904297-0.2988281-0.1542969  l-5.1953125,1.3837891l-1.6103516-4.2138672l4.6445312,0.6123047c0.125,0.0097656,0.2470703-0.0664062,0.2753906-0.1914062  c0.0292969-0.1259766-0.0419922-0.2529297-0.1640625-0.2939453l-5.3984375-1.8095703l-1.1591797-3.0361328  c-0.0004883-0.0019531-0.0014648-0.0039062-0.0019531-0.0058594l0.4052734-10.4472656l1.3984375,2.9306641l-1.4443359,5.6914062  c-0.0322266,0.1259766,0.0380859,0.2548828,0.1601562,0.2978516c0.125,0.0410156,0.2578125-0.015625,0.3105469-0.1347656  l1.8183594-4.0830078l3.0273438,6.34375c0.0585938,0.1220703,0.2011719,0.1748047,0.3242188,0.1220703  s0.1826172-0.1933594,0.1347656-0.3183594l-2.6835938-7.0273438l2.2027588,0.135376l0.0814819,0.508728  c0.0166626,0.1046143,0.1131592,0.1774292,0.2183838,0.164917c0.1055298-0.0127563,0.1827393-0.1055298,0.1739502-0.2119751  l-0.0341797-0.4346313l2.1408081,0.1315308c0.1552734,0,0.2451172-0.0849609,0.2626953-0.2138672  c0.0195312-0.1279297-0.0634766-0.25-0.1894531-0.2792969l-2.2849121-0.5396118l-0.3310547-4.2103271l2.8626099,2.0789795  c0.0836792,0.0606079,0.1977539,0.0455933,0.2662354-0.0305176c0.0670166-0.0779419,0.0638428-0.1939697-0.0081177-0.2675781  l-3.2421265-3.329834l-0.2012329-2.5623169l4.4120483,7.0010376c0.0004272,0.0015869,0.0005493,0.0032959,0.0009766,0.0048218  l0.4066772,2.5401001l-2.984314,3.3768921c-0.0674438,0.076416-0.0657349,0.1914673,0.0038452,0.2664185  c0.0692139,0.0742798,0.1776123,0.0804443,0.2651978,0.0218506l2.9403687-2.2572632l0.5644531,3.5253906l-4.1085205,1.1073608  c-0.0991821,0.0269165-0.1608887,0.12323-0.1437988,0.223999c0.0167847,0.1001587,0.1072388,0.1710815,0.2089844,0.1641235  l4.2353516-0.2987671l0.7631226,4.7637939c0.0166626,0.1046753,0.1131592,0.1774902,0.2183838,0.164917  c0.1055298-0.0127563,0.1827393-0.1055298,0.1739502-0.2119751l-0.3461304-4.4110107l2.7728271,1.921936  c0.0842285,0.0584717,0.197876,0.0419312,0.263916-0.0345459c0.0656128-0.078064,0.0618286-0.1928101-0.0093994-0.2659302  l-3.1542969-3.239563l-0.3660278-4.6565552l6.0869751,9.6595459c0.0566406,0.0895996,0.1744385,0.1188354,0.2664795,0.0657349  c0.092041-0.0531616,0.1255493-0.1697998,0.0762939-0.2636108l-5.3218994-10.1013184l3.8499756,2.6451416l1.2280884,4.3516846  c0.0273438,0.0983887,0.1248779,0.1590576,0.2252808,0.1412354c0.0999756-0.0184326,0.1707153-0.1092529,0.1618042-0.2112427  l-0.2776489-3.3625488l3.6473389,2.5050659c0.0880737,0.0598145,0.206665,0.0395508,0.2705078-0.0446167  c0.0634766-0.0848389,0.0487061-0.204834-0.0335693-0.2715454l-3.7443848-3.0426025l2.376709-3.5187378  c0.057251-0.0848389,0.0407715-0.1984863-0.0375977-0.2630615c-0.0797729-0.0654907-0.1958618-0.0609131-0.2658691,0.0125122  L67.94664,74.1520996l-2.7714844-2.2511597l3.4259644-1.418396c0.0895386-0.0427856,0.1431274-0.1433105,0.1130371-0.2401733  c-0.0297852-0.0979614-0.1289062-0.1567993-0.2287598-0.1365967l-4.416626,0.8960571l-1.9961548-1.6224365  c-0.0010986-0.0010986-0.0025635-0.0020752-0.0036621-0.0032349l-3.8568115-7.3216553l2.1184692,1.4554443l1.2623291,4.4729004  c0.027771,0.0990601,0.1270142,0.1596069,0.2276611,0.1407471c0.1019287-0.0213623,0.1705322-0.1127319,0.1595459-0.215271  l-0.3694458-3.5183716l3.4810181,2.3914185l-0.675415,2.2489014c-0.0371094,0.125,0.0263672,0.2568359,0.1474609,0.3046875  c0.1201172,0.046875,0.2578125-0.0048828,0.3154297-0.1210938l0.9575195-1.9207153l0.3597412,0.2471313  c0.0884399,0.0604858,0.2070312,0.0402222,0.2705078-0.0446167s0.0487061-0.204834-0.0335693-0.2715454l-0.4001465-0.3251953  l0.9846191-1.9750977l4.7431641,5.8369141c0.0859375,0.1054688,0.2373047,0.1210938,0.34375,0.0429688  c0.1074219-0.0800781,0.1328125-0.2314453,0.0566406-0.3417969l-3.9804688-5.7929688l4.4453125,0.4667969  c0.1269531,0.0126953,0.2470703-0.0742188,0.2714844-0.2021484c0.0244141-0.1269531-0.0527344-0.2519531-0.1767578-0.2871094  l-5.6513672-1.5947266L65.2307587,60.375l9.2490234,4.8730469c0.0019531,0.0009766,0.0029297,0.0029297,0.0039062,0.0039062  l2.0498047,2.5224609l-1.1318359,5.5800781c-0.0253906,0.1259766,0.0488281,0.2509766,0.171875,0.2890625  c0.1220703,0.0341797,0.2548828-0.0244141,0.3046875-0.1435547l1.7919922-4.3271484l2.8447266,3.5l-3.796875,3.8076172  c-0.0908203,0.0917969-0.0976562,0.2363281-0.015625,0.3359375c0.0820312,0.1005859,0.2285156,0.1210938,0.3320312,0.0478516  l4.4453125-3.0029297l3.8447266,4.7304688c0.0859375,0.1054688,0.2373047,0.1210938,0.34375,0.0429688  c0.1074219-0.0800781,0.1328125-0.2314453,0.0566406-0.3417969l-3.1669922-4.6074219l4.25,0.3505859  c0.125,0.0107422,0.2431641-0.078125,0.2666016-0.2041016c0.0224609-0.1269531-0.0546875-0.2509766-0.1777344-0.2851562  l-5.4990234-1.5517578l-3.3427734-4.8642578l12.7626953,6.7226562c0.1181641,0.0654297,0.2646484,0.0205078,0.3330078-0.0957031  c0.0664062-0.1162109,0.0302734-0.2646484-0.0839844-0.3369141l-12.203125-7.6904297l5.8837891,0.4628906l4.0927734,3.9853516  c0.09375,0.0917969,0.2392578,0.0966797,0.3359375,0.0117188c0.0986328-0.0830078,0.1181641-0.2265625,0.0439453-0.3330078  l-2.4277344-3.5029297l5.5722656,0.4375c0.1523438,0.0166016,0.2519531-0.0869141,0.2675781-0.2197266  S92.555954,66.3173828,92.424118,66.2958984z M71.7072601,55.0744019l-1.836853,1.9509888l-2.1034546-0.336853l-0.1954956-3.1936646  L71.7072601,55.0744019z M69.8704071,42.9750977l1.8366089,1.9501953l-4.135437,1.5791626l0.1951904-3.1925049  L69.8704071,42.9750977z M67.2396698,43.3964233l-0.8387451,3.5554199l-4.8404541,1.8485718L56.1388397,48.59021  l7.2677002-4.5799561L67.2396698,43.3964233z M65.2480927,33.7390137l0.770752,2.5661621l-1.3430786,1.6523438l-2.8627319-1.4271851  L65.2480927,33.7390137z M56.8193207,40.5884399l4.0211182-3.2676392l3.4986572,1.0509033l-2.4491577,3.0130615l-7.5993652,4.00354  L56.8193207,40.5884399z M53.8518524,29.2802734l2.6069336-0.6156616l-0.6997681,4.3706055l-2.6671753-1.7654419  L53.8518524,29.2802734z M52.9012909,31.7685547l2.6593628,2.5044556l-0.8200073,5.1159668l-2.8917236,4.5886841  l-0.3330078-8.5826416L52.9012909,31.7685547z M48.1519012,43.9785767l-2.8928223-4.5897827l-0.8187256-5.1159668  l2.6589355-2.5045776l1.3848877,3.62677L48.1519012,43.9785767z M43.5419769,28.6646118l2.6072388,0.6156616l0.7595215,1.9890747  l-2.6669922,1.7659302L43.5419769,28.6646118z M39.1604462,37.321228l4.0205078,3.267395l2.5286255,4.7993774l-7.5999146-4.0032349  l-2.4483643-3.0128174L39.1604462,37.321228z M34.7524872,33.7389526l3.4351807,2.791687l-2.8631592,1.4268799l-1.3427734-1.6523438  L34.7524872,33.7389526z M28.2944202,44.9254761l1.836731-1.9503784l2.1024761,0.336731l0.1954346,3.1925049L28.2944202,44.9254761z   M33.6001434,46.9519043l-0.8393555-3.555603l3.833252,0.6139526l7.2667847,4.5795898l-5.4208374,0.2103271L33.6001434,46.9519043z   M30.1311512,57.0253906l-1.836792-1.9509277l4.1348248-1.5793457l-0.1957397,3.1935425L30.1311512,57.0253906z   M32.760849,56.604187l0.8394775-3.5563354l4.8397827-1.8481445l5.4214478,0.210083l-7.2675171,4.5804443L32.760849,56.604187z   M34.7525482,66.2608032l-0.770813-2.5664673l1.3428955-1.6523438l2.8630981,1.4272461L34.7525482,66.2608032z   M43.1812592,59.4116211l-4.0204468,3.2672729l-3.4992065-1.0515137l2.4480591-3.012146l7.6000977-4.0037231L43.1812592,59.4116211z   M46.1492157,70.7197266l-2.6077271,0.6157837l0.7001953-4.3711548l2.6672363,1.7659912L46.1492157,70.7197266z   M47.099472,68.2314453l-2.6599121-2.5050659l0.819519-5.1152344l2.8928223-4.5901489l0.3322754,8.5844727L47.099472,68.2314453z   M51.8489227,56.0217285l2.8922119,4.5897827l0.8192139,5.1152344l-2.6591797,2.5046387l-1.3852539-3.6259155L51.8489227,56.0217285  z M56.4589691,71.3354492l-2.6071167-0.6157227l-0.7599487-1.9891357l2.666748-1.7661743L56.4589691,71.3354492z   M60.8403168,62.6783447l-4.0209961-3.2666626l-2.5285645-4.8002319l7.5991821,4.0037842l2.4490356,3.0126953L60.8403168,62.6783447  z M65.2480316,66.2608643l-3.4353027-2.791748l2.8633423-1.4265747l1.3427734,1.6517944L65.2480316,66.2608643z   M63.4065399,55.9902344L56.1385956,51.40979l5.4211426-0.2098389l4.840332,1.8475342l0.8396606,3.5566406L63.4065399,55.9902344z" /></svg>
